<?xml version="1.0" encoding="UTF-8"?>
<svg xmlns="http://www.w3.org/2000/svg" xmlns:xlink="http://www.w3.org/1999/xlink" width="30pt" height="30.000001pt" viewBox="0 0 30 30.000001" version="1.2">
<defs>
<clipPath id="clip1">
  <path d="M 0.484375 0 L 29.515625 0 L 29.515625 29.03125 L 0.484375 29.03125 Z M 0.484375 0 "/>
</clipPath>
<clipPath id="clip2">
  <path d="M 15.691406 17.972656 L 15.691406 15.207031 C 15.871094 15.21875 16.042969 15.257812 16.207031 15.332031 C 16.375 15.40625 16.519531 15.507812 16.648438 15.632812 C 16.773438 15.761719 16.875 15.90625 16.949219 16.074219 C 17.023438 16.238281 17.0625 16.410156 17.074219 16.589844 C 17.074219 16.78125 17.140625 16.945312 17.277344 17.078125 C 17.410156 17.214844 17.574219 17.28125 17.765625 17.28125 C 17.957031 17.28125 18.117188 17.214844 18.253906 17.078125 C 18.390625 16.945312 18.457031 16.78125 18.457031 16.589844 C 18.445312 16.226562 18.367188 15.878906 18.226562 15.542969 C 18.082031 15.210938 17.878906 14.914062 17.625 14.65625 C 17.367188 14.402344 17.070312 14.199219 16.738281 14.054688 C 16.402344 13.914062 16.054688 13.835938 15.691406 13.824219 L 15.691406 13.132812 C 15.691406 12.941406 15.625 12.78125 15.488281 12.644531 C 15.355469 12.511719 15.191406 12.441406 15 12.441406 C 14.808594 12.441406 14.644531 12.511719 14.511719 12.644531 C 14.375 12.78125 14.308594 12.941406 14.308594 13.132812 L 14.308594 13.824219 C 13.945312 13.835938 13.597656 13.914062 13.265625 14.058594 C 12.933594 14.203125 12.636719 14.40625 12.378906 14.660156 C 12.125 14.917969 11.921875 15.214844 11.777344 15.546875 C 11.632812 15.878906 11.554688 16.226562 11.542969 16.589844 C 11.542969 16.957031 11.613281 17.308594 11.753906 17.648438 C 11.894531 17.988281 12.09375 18.285156 12.355469 18.546875 C 12.613281 18.804688 12.910156 19.003906 13.25 19.144531 C 13.589844 19.285156 13.941406 19.355469 14.308594 19.355469 L 14.308594 22.121094 C 14.125 22.121094 13.949219 22.085938 13.78125 22.015625 C 13.609375 21.945312 13.460938 21.84375 13.332031 21.714844 C 13.203125 21.585938 13.101562 21.4375 13.03125 21.265625 C 12.960938 21.097656 12.925781 20.921875 12.925781 20.738281 C 12.925781 20.546875 12.859375 20.382812 12.722656 20.25 C 12.589844 20.113281 12.425781 20.046875 12.234375 20.046875 C 12.042969 20.046875 11.882812 20.113281 11.746094 20.25 C 11.609375 20.382812 11.542969 20.546875 11.542969 20.738281 C 11.542969 21.105469 11.613281 21.457031 11.753906 21.796875 C 11.894531 22.132812 12.09375 22.433594 12.355469 22.691406 C 12.613281 22.953125 12.910156 23.152344 13.25 23.292969 C 13.589844 23.433594 13.941406 23.503906 14.308594 23.503906 L 14.308594 24.207031 C 14.308594 24.398438 14.375 24.5625 14.511719 24.695312 C 14.644531 24.832031 14.808594 24.898438 15 24.898438 C 15.191406 24.898438 15.355469 24.832031 15.488281 24.695312 C 15.625 24.5625 15.691406 24.398438 15.691406 24.207031 L 15.691406 23.503906 C 16.058594 23.503906 16.410156 23.433594 16.75 23.292969 C 17.089844 23.152344 17.386719 22.953125 17.644531 22.691406 C 17.90625 22.433594 18.105469 22.132812 18.246094 21.796875 C 18.386719 21.457031 18.457031 21.105469 18.457031 20.738281 C 18.457031 20.371094 18.386719 20.019531 18.246094 19.679688 C 18.105469 19.339844 17.90625 19.042969 17.644531 18.78125 C 17.386719 18.523438 17.089844 18.324219 16.75 18.183594 C 16.410156 18.042969 16.058594 17.972656 15.691406 17.972656 Z M 12.925781 16.589844 C 12.9375 16.410156 12.976562 16.238281 13.050781 16.074219 C 13.125 15.90625 13.226562 15.761719 13.351562 15.632812 C 13.480469 15.507812 13.625 15.40625 13.792969 15.332031 C 13.957031 15.257812 14.128906 15.21875 14.308594 15.207031 L 14.308594 17.972656 C 14.125 17.972656 13.949219 17.9375 13.78125 17.867188 C 13.609375 17.796875 13.460938 17.695312 13.332031 17.566406 C 13.203125 17.4375 13.101562 17.289062 13.03125 17.117188 C 12.960938 16.949219 12.925781 16.773438 12.925781 16.589844 Z M 15.691406 22.121094 L 15.691406 19.355469 C 15.875 19.355469 16.050781 19.390625 16.21875 19.460938 C 16.390625 19.53125 16.539062 19.628906 16.667969 19.757812 C 16.796875 19.890625 16.898438 20.039062 16.96875 20.207031 C 17.039062 20.378906 17.074219 20.554688 17.074219 20.738281 C 17.074219 20.921875 17.039062 21.097656 16.96875 21.265625 C 16.898438 21.4375 16.796875 21.585938 16.667969 21.714844 C 16.539062 21.84375 16.390625 21.945312 16.21875 22.015625 C 16.050781 22.085938 15.875 22.121094 15.691406 22.121094 Z M 27.441406 2.765625 L 25.367188 2.765625 L 25.367188 0.691406 C 25.367188 0.5 25.300781 0.335938 25.167969 0.203125 C 25.03125 0.0664062 24.867188 0 24.675781 0 C 24.488281 0 24.324219 0.0664062 24.1875 0.203125 C 24.054688 0.335938 23.984375 0.5 23.984375 0.691406 L 23.984375 2.765625 L 15.691406 2.765625 L 15.691406 0.691406 C 15.691406 0.5 15.625 0.335938 15.488281 0.203125 C 15.355469 0.0664062 15.191406 0 15 0 C 14.808594 0 14.644531 0.0664062 14.511719 0.203125 C 14.375 0.335938 14.308594 0.5 14.308594 0.691406 L 14.308594 2.765625 L 6.015625 2.765625 L 6.015625 0.691406 C 6.015625 0.5 5.945312 0.335938 5.8125 0.203125 C 5.675781 0.0664062 5.511719 0 5.324219 0 C 5.132812 0 4.96875 0.0664062 4.832031 0.203125 C 4.699219 0.335938 4.632812 0.5 4.632812 0.691406 L 4.632812 2.765625 L 2.558594 2.765625 C 2.28125 2.765625 2.019531 2.816406 1.765625 2.921875 C 1.511719 3.027344 1.285156 3.179688 1.089844 3.371094 C 0.898438 3.566406 0.746094 3.792969 0.640625 4.046875 C 0.535156 4.300781 0.484375 4.5625 0.484375 4.839844 L 0.484375 26.957031 C 0.484375 27.234375 0.535156 27.5 0.640625 27.753906 C 0.746094 28.007812 0.898438 28.230469 1.089844 28.425781 C 1.285156 28.621094 1.511719 28.769531 1.765625 28.875 C 2.019531 28.980469 2.28125 29.03125 2.558594 29.03125 L 27.441406 29.03125 C 27.71875 29.03125 27.980469 28.980469 28.234375 28.875 C 28.488281 28.769531 28.714844 28.621094 28.910156 28.425781 C 29.101562 28.230469 29.253906 28.007812 29.359375 27.753906 C 29.464844 27.5 29.515625 27.234375 29.515625 26.957031 L 29.515625 4.839844 C 29.515625 4.5625 29.464844 4.300781 29.359375 4.046875 C 29.253906 3.792969 29.101562 3.566406 28.910156 3.371094 C 28.714844 3.179688 28.488281 3.027344 28.234375 2.921875 C 27.980469 2.816406 27.71875 2.765625 27.441406 2.765625 Z M 2.558594 4.148438 L 4.632812 4.148438 L 4.632812 4.839844 C 4.632812 5.03125 4.699219 5.191406 4.832031 5.328125 C 4.96875 5.460938 5.132812 5.53125 5.324219 5.53125 C 5.511719 5.53125 5.675781 5.460938 5.8125 5.328125 C 5.945312 5.191406 6.015625 5.03125 6.015625 4.839844 L 6.015625 4.148438 L 14.308594 4.148438 L 14.308594 4.839844 C 14.308594 5.03125 14.375 5.191406 14.511719 5.328125 C 14.644531 5.460938 14.808594 5.53125 15 5.53125 C 15.191406 5.53125 15.355469 5.460938 15.488281 5.328125 C 15.625 5.191406 15.691406 5.03125 15.691406 4.839844 L 15.691406 4.148438 L 23.984375 4.148438 L 23.984375 4.839844 C 23.984375 5.03125 24.054688 5.191406 24.1875 5.328125 C 24.324219 5.460938 24.488281 5.53125 24.675781 5.53125 C 24.867188 5.53125 25.03125 5.460938 25.167969 5.328125 C 25.300781 5.191406 25.367188 5.03125 25.367188 4.839844 L 25.367188 4.148438 L 27.441406 4.148438 C 27.632812 4.148438 27.796875 4.214844 27.929688 4.351562 C 28.066406 4.484375 28.132812 4.648438 28.132812 4.839844 L 28.132812 8.296875 L 1.867188 8.296875 L 1.867188 4.839844 C 1.867188 4.648438 1.933594 4.484375 2.070312 4.351562 C 2.203125 4.214844 2.367188 4.148438 2.558594 4.148438 Z M 27.441406 27.648438 L 2.558594 27.648438 C 2.367188 27.648438 2.203125 27.582031 2.070312 27.449219 C 1.933594 27.3125 1.867188 27.148438 1.867188 26.957031 L 1.867188 9.675781 L 28.132812 9.675781 L 28.132812 26.957031 C 28.132812 27.148438 28.066406 27.3125 27.929688 27.449219 C 27.796875 27.582031 27.632812 27.648438 27.441406 27.648438 Z M 27.441406 27.648438 "/>
</clipPath>
<linearGradient id="linear0" gradientUnits="userSpaceOnUse" x1="2" y1="12.5" x2="22.999999" y2="12.5" gradientTransform="matrix(1.382489,0,0,1.382489,-2.281107,-2.764976)">
<stop offset="0" style="stop-color:rgb(30.198669%,7.798767%,54.499817%);stop-opacity:1;"/>
<stop offset="0.0625" style="stop-color:rgb(30.198669%,7.798767%,54.499817%);stop-opacity:1;"/>
<stop offset="0.09375" style="stop-color:rgb(30.198669%,7.798767%,54.499817%);stop-opacity:1;"/>
<stop offset="0.101563" style="stop-color:rgb(30.305481%,7.804871%,54.466248%);stop-opacity:1;"/>
<stop offset="0.105469" style="stop-color:rgb(30.949402%,7.841492%,54.267883%);stop-opacity:1;"/>
<stop offset="0.109375" style="stop-color:rgb(31.486511%,7.872009%,54.103088%);stop-opacity:1;"/>
<stop offset="0.113281" style="stop-color:rgb(32.022095%,7.901001%,53.936768%);stop-opacity:1;"/>
<stop offset="0.117188" style="stop-color:rgb(32.559204%,7.931519%,53.771973%);stop-opacity:1;"/>
<stop offset="0.121094" style="stop-color:rgb(33.094788%,7.96051%,53.605652%);stop-opacity:1;"/>
<stop offset="0.125" style="stop-color:rgb(33.631897%,7.991028%,53.440857%);stop-opacity:1;"/>
<stop offset="0.128906" style="stop-color:rgb(34.16748%,8.021545%,53.276062%);stop-opacity:1;"/>
<stop offset="0.132812" style="stop-color:rgb(34.70459%,8.052063%,53.111267%);stop-opacity:1;"/>
<stop offset="0.136719" style="stop-color:rgb(35.240173%,8.081055%,52.944946%);stop-opacity:1;"/>
<stop offset="0.140625" style="stop-color:rgb(35.777283%,8.111572%,52.780151%);stop-opacity:1;"/>
<stop offset="0.144531" style="stop-color:rgb(36.312866%,8.140564%,52.615356%);stop-opacity:1;"/>
<stop offset="0.148438" style="stop-color:rgb(36.849976%,8.171082%,52.450562%);stop-opacity:1;"/>
<stop offset="0.152344" style="stop-color:rgb(37.385559%,8.201599%,52.284241%);stop-opacity:1;"/>
<stop offset="0.15625" style="stop-color:rgb(37.922668%,8.232117%,52.119446%);stop-opacity:1;"/>
<stop offset="0.160156" style="stop-color:rgb(38.458252%,8.261108%,51.953125%);stop-opacity:1;"/>
<stop offset="0.164062" style="stop-color:rgb(38.995361%,8.291626%,51.78833%);stop-opacity:1;"/>
<stop offset="0.167969" style="stop-color:rgb(39.530945%,8.322144%,51.623535%);stop-opacity:1;"/>
<stop offset="0.171875" style="stop-color:rgb(40.068054%,8.352661%,51.45874%);stop-opacity:1;"/>
<stop offset="0.175781" style="stop-color:rgb(40.603638%,8.381653%,51.292419%);stop-opacity:1;"/>
<stop offset="0.179688" style="stop-color:rgb(41.140747%,8.41217%,51.127625%);stop-opacity:1;"/>
<stop offset="0.183594" style="stop-color:rgb(41.676331%,8.441162%,50.96283%);stop-opacity:1;"/>
<stop offset="0.1875" style="stop-color:rgb(42.21344%,8.47168%,50.798035%);stop-opacity:1;"/>
<stop offset="0.191406" style="stop-color:rgb(42.749023%,8.502197%,50.631714%);stop-opacity:1;"/>
<stop offset="0.195312" style="stop-color:rgb(43.286133%,8.532715%,50.466919%);stop-opacity:1;"/>
<stop offset="0.199219" style="stop-color:rgb(43.821716%,8.561707%,50.300598%);stop-opacity:1;"/>
<stop offset="0.203125" style="stop-color:rgb(44.358826%,8.592224%,50.135803%);stop-opacity:1;"/>
<stop offset="0.207031" style="stop-color:rgb(44.894409%,8.622742%,49.971008%);stop-opacity:1;"/>
<stop offset="0.210938" style="stop-color:rgb(45.431519%,8.653259%,49.806213%);stop-opacity:1;"/>
<stop offset="0.214844" style="stop-color:rgb(45.967102%,8.682251%,49.639893%);stop-opacity:1;"/>
<stop offset="0.21875" style="stop-color:rgb(46.504211%,8.712769%,49.475098%);stop-opacity:1;"/>
<stop offset="0.222656" style="stop-color:rgb(47.039795%,8.74176%,49.308777%);stop-opacity:1;"/>
<stop offset="0.226562" style="stop-color:rgb(47.576904%,8.772278%,49.143982%);stop-opacity:1;"/>
<stop offset="0.230469" style="stop-color:rgb(48.112488%,8.802795%,48.979187%);stop-opacity:1;"/>
<stop offset="0.234375" style="stop-color:rgb(48.649597%,8.833313%,48.814392%);stop-opacity:1;"/>
<stop offset="0.238281" style="stop-color:rgb(49.185181%,8.862305%,48.648071%);stop-opacity:1;"/>
<stop offset="0.242188" style="stop-color:rgb(49.72229%,8.892822%,48.483276%);stop-opacity:1;"/>
<stop offset="0.246094" style="stop-color:rgb(50.257874%,8.921814%,48.318481%);stop-opacity:1;"/>
<stop offset="0.25" style="stop-color:rgb(50.794983%,8.952332%,48.153687%);stop-opacity:1;"/>
<stop offset="0.253906" style="stop-color:rgb(51.330566%,8.982849%,47.987366%);stop-opacity:1;"/>
<stop offset="0.257812" style="stop-color:rgb(51.867676%,9.013367%,47.822571%);stop-opacity:1;"/>
<stop offset="0.261719" style="stop-color:rgb(52.403259%,9.042358%,47.65625%);stop-opacity:1;"/>
<stop offset="0.265625" style="stop-color:rgb(52.940369%,9.072876%,47.491455%);stop-opacity:1;"/>
<stop offset="0.269531" style="stop-color:rgb(53.475952%,9.103394%,47.32666%);stop-opacity:1;"/>
<stop offset="0.273438" style="stop-color:rgb(54.013062%,9.133911%,47.161865%);stop-opacity:1;"/>
<stop offset="0.277344" style="stop-color:rgb(54.548645%,9.162903%,46.995544%);stop-opacity:1;"/>
<stop offset="0.28125" style="stop-color:rgb(55.085754%,9.19342%,46.83075%);stop-opacity:1;"/>
<stop offset="0.285156" style="stop-color:rgb(55.621338%,9.222412%,46.665955%);stop-opacity:1;"/>
<stop offset="0.289062" style="stop-color:rgb(56.158447%,9.25293%,46.50116%);stop-opacity:1;"/>
<stop offset="0.292969" style="stop-color:rgb(56.694031%,9.283447%,46.334839%);stop-opacity:1;"/>
<stop offset="0.296875" style="stop-color:rgb(57.23114%,9.313965%,46.170044%);stop-opacity:1;"/>
<stop offset="0.300781" style="stop-color:rgb(57.766724%,9.342957%,46.003723%);stop-opacity:1;"/>
<stop offset="0.304688" style="stop-color:rgb(58.303833%,9.373474%,45.838928%);stop-opacity:1;"/>
<stop offset="0.308594" style="stop-color:rgb(58.839417%,9.403992%,45.674133%);stop-opacity:1;"/>
<stop offset="0.3125" style="stop-color:rgb(59.376526%,9.434509%,45.509338%);stop-opacity:1;"/>
<stop offset="0.316406" style="stop-color:rgb(59.912109%,9.463501%,45.343018%);stop-opacity:1;"/>
<stop offset="0.320312" style="stop-color:rgb(60.449219%,9.494019%,45.178223%);stop-opacity:1;"/>
<stop offset="0.324219" style="stop-color:rgb(60.984802%,9.52301%,45.011902%);stop-opacity:1;"/>
<stop offset="0.328125" style="stop-color:rgb(61.521912%,9.553528%,44.847107%);stop-opacity:1;"/>
<stop offset="0.332031" style="stop-color:rgb(62.057495%,9.584045%,44.682312%);stop-opacity:1;"/>
<stop offset="0.335938" style="stop-color:rgb(62.594604%,9.614563%,44.517517%);stop-opacity:1;"/>
<stop offset="0.339844" style="stop-color:rgb(63.130188%,9.643555%,44.351196%);stop-opacity:1;"/>
<stop offset="0.34375" style="stop-color:rgb(63.667297%,9.674072%,44.186401%);stop-opacity:1;"/>
<stop offset="0.347656" style="stop-color:rgb(64.202881%,9.703064%,44.021606%);stop-opacity:1;"/>
<stop offset="0.351562" style="stop-color:rgb(64.73999%,9.733582%,43.856812%);stop-opacity:1;"/>
<stop offset="0.355469" style="stop-color:rgb(65.275574%,9.764099%,43.690491%);stop-opacity:1;"/>
<stop offset="0.359375" style="stop-color:rgb(65.812683%,9.794617%,43.525696%);stop-opacity:1;"/>
<stop offset="0.363281" style="stop-color:rgb(66.375732%,9.819031%,43.348694%);stop-opacity:1;"/>
<stop offset="0.367188" style="stop-color:rgb(66.938782%,9.843445%,43.173218%);stop-opacity:1;"/>
<stop offset="0.371094" style="stop-color:rgb(67.503357%,9.867859%,42.996216%);stop-opacity:1;"/>
<stop offset="0.375" style="stop-color:rgb(68.067932%,9.892273%,42.819214%);stop-opacity:1;"/>
<stop offset="0.378906" style="stop-color:rgb(68.632507%,9.915161%,42.640686%);stop-opacity:1;"/>
<stop offset="0.382812" style="stop-color:rgb(69.198608%,9.939575%,42.463684%);stop-opacity:1;"/>
<stop offset="0.386719" style="stop-color:rgb(69.763184%,9.963989%,42.286682%);stop-opacity:1;"/>
<stop offset="0.390625" style="stop-color:rgb(70.327759%,9.988403%,42.10968%);stop-opacity:1;"/>
<stop offset="0.394531" style="stop-color:rgb(70.892334%,10.011292%,41.931152%);stop-opacity:1;"/>
<stop offset="0.398438" style="stop-color:rgb(71.458435%,10.035706%,41.75415%);stop-opacity:1;"/>
<stop offset="0.402344" style="stop-color:rgb(72.02301%,10.06012%,41.577148%);stop-opacity:1;"/>
<stop offset="0.40625" style="stop-color:rgb(72.587585%,10.084534%,41.400146%);stop-opacity:1;"/>
<stop offset="0.410156" style="stop-color:rgb(73.152161%,10.107422%,41.223145%);stop-opacity:1;"/>
<stop offset="0.414062" style="stop-color:rgb(73.718262%,10.131836%,41.046143%);stop-opacity:1;"/>
<stop offset="0.417969" style="stop-color:rgb(74.282837%,10.15625%,40.867615%);stop-opacity:1;"/>
<stop offset="0.421875" style="stop-color:rgb(74.847412%,10.180664%,40.690613%);stop-opacity:1;"/>
<stop offset="0.425781" style="stop-color:rgb(75.411987%,10.203552%,40.513611%);stop-opacity:1;"/>
<stop offset="0.429688" style="stop-color:rgb(75.976562%,10.227966%,40.336609%);stop-opacity:1;"/>
<stop offset="0.433594" style="stop-color:rgb(76.541138%,10.25238%,40.159607%);stop-opacity:1;"/>
<stop offset="0.4375" style="stop-color:rgb(77.107239%,10.276794%,39.982605%);stop-opacity:1;"/>
<stop offset="0.441406" style="stop-color:rgb(77.671814%,10.299683%,39.804077%);stop-opacity:1;"/>
<stop offset="0.445312" style="stop-color:rgb(78.236389%,10.324097%,39.627075%);stop-opacity:1;"/>
<stop offset="0.449219" style="stop-color:rgb(78.800964%,10.348511%,39.450073%);stop-opacity:1;"/>
<stop offset="0.453125" style="stop-color:rgb(79.367065%,10.372925%,39.273071%);stop-opacity:1;"/>
<stop offset="0.457031" style="stop-color:rgb(79.931641%,10.395813%,39.094543%);stop-opacity:1;"/>
<stop offset="0.460938" style="stop-color:rgb(80.496216%,10.420227%,38.917542%);stop-opacity:1;"/>
<stop offset="0.464844" style="stop-color:rgb(81.060791%,10.444641%,38.74054%);stop-opacity:1;"/>
<stop offset="0.46875" style="stop-color:rgb(81.626892%,10.469055%,38.563538%);stop-opacity:1;"/>
<stop offset="0.472656" style="stop-color:rgb(82.191467%,10.491943%,38.386536%);stop-opacity:1;"/>
<stop offset="0.476562" style="stop-color:rgb(82.756042%,10.516357%,38.209534%);stop-opacity:1;"/>
<stop offset="0.480469" style="stop-color:rgb(83.320618%,10.540771%,38.031006%);stop-opacity:1;"/>
<stop offset="0.484375" style="stop-color:rgb(83.885193%,10.565186%,37.854004%);stop-opacity:1;"/>
<stop offset="0.488281" style="stop-color:rgb(84.326172%,10.655212%,37.641907%);stop-opacity:1;"/>
<stop offset="0.492188" style="stop-color:rgb(84.767151%,10.746765%,37.431335%);stop-opacity:1;"/>
<stop offset="0.496094" style="stop-color:rgb(84.889221%,11.00769%,37.130737%);stop-opacity:1;"/>
<stop offset="0.5" style="stop-color:rgb(85.011292%,11.270142%,36.831665%);stop-opacity:1;"/>
<stop offset="0.503906" style="stop-color:rgb(85.133362%,11.532593%,36.531067%);stop-opacity:1;"/>
<stop offset="0.507812" style="stop-color:rgb(85.255432%,11.795044%,36.231995%);stop-opacity:1;"/>
<stop offset="0.511719" style="stop-color:rgb(85.377502%,12.057495%,35.931396%);stop-opacity:1;"/>
<stop offset="0.515625" style="stop-color:rgb(85.499573%,12.319946%,35.632324%);stop-opacity:1;"/>
<stop offset="0.519531" style="stop-color:rgb(85.621643%,12.582397%,35.333252%);stop-opacity:1;"/>
<stop offset="0.523438" style="stop-color:rgb(85.743713%,12.844849%,35.03418%);stop-opacity:1;"/>
<stop offset="0.527344" style="stop-color:rgb(85.865784%,13.105774%,34.733582%);stop-opacity:1;"/>
<stop offset="0.53125" style="stop-color:rgb(85.987854%,13.368225%,34.434509%);stop-opacity:1;"/>
<stop offset="0.535156" style="stop-color:rgb(86.108398%,13.630676%,34.133911%);stop-opacity:1;"/>
<stop offset="0.539063" style="stop-color:rgb(86.230469%,13.893127%,33.834839%);stop-opacity:1;"/>
<stop offset="0.542969" style="stop-color:rgb(86.352539%,14.155579%,33.534241%);stop-opacity:1;"/>
<stop offset="0.546875" style="stop-color:rgb(86.474609%,14.41803%,33.235168%);stop-opacity:1;"/>
<stop offset="0.550781" style="stop-color:rgb(86.59668%,14.680481%,32.93457%);stop-opacity:1;"/>
<stop offset="0.554688" style="stop-color:rgb(86.71875%,14.942932%,32.635498%);stop-opacity:1;"/>
<stop offset="0.558594" style="stop-color:rgb(86.84082%,15.205383%,32.3349%);stop-opacity:1;"/>
<stop offset="0.5625" style="stop-color:rgb(86.962891%,15.467834%,32.035828%);stop-opacity:1;"/>
<stop offset="0.566406" style="stop-color:rgb(87.084961%,15.72876%,31.735229%);stop-opacity:1;"/>
<stop offset="0.570313" style="stop-color:rgb(87.207031%,15.991211%,31.436157%);stop-opacity:1;"/>
<stop offset="0.574219" style="stop-color:rgb(87.329102%,16.253662%,31.135559%);stop-opacity:1;"/>
<stop offset="0.578125" style="stop-color:rgb(87.451172%,16.516113%,30.836487%);stop-opacity:1;"/>
<stop offset="0.582031" style="stop-color:rgb(87.573242%,16.778564%,30.535889%);stop-opacity:1;"/>
<stop offset="0.585938" style="stop-color:rgb(87.695312%,17.041016%,30.236816%);stop-opacity:1;"/>
<stop offset="0.589844" style="stop-color:rgb(87.817383%,17.303467%,29.937744%);stop-opacity:1;"/>
<stop offset="0.59375" style="stop-color:rgb(87.939453%,17.565918%,29.638672%);stop-opacity:1;"/>
<stop offset="0.597656" style="stop-color:rgb(88.059998%,17.826843%,29.338074%);stop-opacity:1;"/>
<stop offset="0.601563" style="stop-color:rgb(88.182068%,18.089294%,29.039001%);stop-opacity:1;"/>
<stop offset="0.605469" style="stop-color:rgb(88.304138%,18.351746%,28.738403%);stop-opacity:1;"/>
<stop offset="0.609375" style="stop-color:rgb(88.426208%,18.614197%,28.439331%);stop-opacity:1;"/>
<stop offset="0.613281" style="stop-color:rgb(88.548279%,18.876648%,28.138733%);stop-opacity:1;"/>
<stop offset="0.617188" style="stop-color:rgb(88.670349%,19.139099%,27.839661%);stop-opacity:1;"/>
<stop offset="0.621094" style="stop-color:rgb(88.792419%,19.40155%,27.539062%);stop-opacity:1;"/>
<stop offset="0.625" style="stop-color:rgb(88.91449%,19.664001%,27.23999%);stop-opacity:1;"/>
<stop offset="0.628906" style="stop-color:rgb(89.03656%,19.924927%,26.939392%);stop-opacity:1;"/>
<stop offset="0.632813" style="stop-color:rgb(89.15863%,20.187378%,26.64032%);stop-opacity:1;"/>
<stop offset="0.636719" style="stop-color:rgb(89.280701%,20.449829%,26.339722%);stop-opacity:1;"/>
<stop offset="0.640625" style="stop-color:rgb(89.402771%,20.71228%,26.040649%);stop-opacity:1;"/>
<stop offset="0.644531" style="stop-color:rgb(89.524841%,20.974731%,25.740051%);stop-opacity:1;"/>
<stop offset="0.648438" style="stop-color:rgb(89.646912%,21.237183%,25.440979%);stop-opacity:1;"/>
<stop offset="0.652344" style="stop-color:rgb(89.768982%,21.499634%,25.141907%);stop-opacity:1;"/>
<stop offset="0.65625" style="stop-color:rgb(89.891052%,21.762085%,24.842834%);stop-opacity:1;"/>
<stop offset="0.660156" style="stop-color:rgb(90.011597%,22.024536%,24.542236%);stop-opacity:1;"/>
<stop offset="0.664063" style="stop-color:rgb(90.133667%,22.286987%,24.243164%);stop-opacity:1;"/>
<stop offset="0.667969" style="stop-color:rgb(90.255737%,22.547913%,23.942566%);stop-opacity:1;"/>
<stop offset="0.671875" style="stop-color:rgb(90.377808%,22.810364%,23.643494%);stop-opacity:1;"/>
<stop offset="0.675781" style="stop-color:rgb(90.499878%,23.072815%,23.342896%);stop-opacity:1;"/>
<stop offset="0.679688" style="stop-color:rgb(90.621948%,23.335266%,23.043823%);stop-opacity:1;"/>
<stop offset="0.683594" style="stop-color:rgb(90.744019%,23.597717%,22.743225%);stop-opacity:1;"/>
<stop offset="0.6875" style="stop-color:rgb(90.866089%,23.860168%,22.444153%);stop-opacity:1;"/>
<stop offset="0.691406" style="stop-color:rgb(90.988159%,24.12262%,22.143555%);stop-opacity:1;"/>
<stop offset="0.695313" style="stop-color:rgb(91.110229%,24.385071%,21.844482%);stop-opacity:1;"/>
<stop offset="0.699219" style="stop-color:rgb(91.2323%,24.645996%,21.543884%);stop-opacity:1;"/>
<stop offset="0.703125" style="stop-color:rgb(91.35437%,24.908447%,21.244812%);stop-opacity:1;"/>
<stop offset="0.707031" style="stop-color:rgb(91.47644%,25.170898%,20.944214%);stop-opacity:1;"/>
<stop offset="0.710938" style="stop-color:rgb(91.598511%,25.43335%,20.645142%);stop-opacity:1;"/>
<stop offset="0.714844" style="stop-color:rgb(91.719055%,25.695801%,20.344543%);stop-opacity:1;"/>
<stop offset="0.71875" style="stop-color:rgb(91.841125%,25.958252%,20.045471%);stop-opacity:1;"/>
<stop offset="0.722656" style="stop-color:rgb(91.963196%,26.220703%,19.746399%);stop-opacity:1;"/>
<stop offset="0.726563" style="stop-color:rgb(92.085266%,26.483154%,19.447327%);stop-opacity:1;"/>
<stop offset="0.730469" style="stop-color:rgb(92.207336%,26.74408%,19.146729%);stop-opacity:1;"/>
<stop offset="0.734375" style="stop-color:rgb(92.329407%,27.006531%,18.847656%);stop-opacity:1;"/>
<stop offset="0.738281" style="stop-color:rgb(92.451477%,27.268982%,18.547058%);stop-opacity:1;"/>
<stop offset="0.742188" style="stop-color:rgb(92.573547%,27.531433%,18.247986%);stop-opacity:1;"/>
<stop offset="0.746094" style="stop-color:rgb(92.695618%,27.793884%,17.947388%);stop-opacity:1;"/>
<stop offset="0.75" style="stop-color:rgb(92.817688%,28.056335%,17.648315%);stop-opacity:1;"/>
<stop offset="0.753906" style="stop-color:rgb(92.939758%,28.318787%,17.347717%);stop-opacity:1;"/>
<stop offset="0.757812" style="stop-color:rgb(93.061829%,28.581238%,17.048645%);stop-opacity:1;"/>
<stop offset="0.761719" style="stop-color:rgb(93.183899%,28.843689%,16.748047%);stop-opacity:1;"/>
<stop offset="0.765625" style="stop-color:rgb(93.305969%,29.10614%,16.448975%);stop-opacity:1;"/>
<stop offset="0.769531" style="stop-color:rgb(93.42804%,29.367065%,16.148376%);stop-opacity:1;"/>
<stop offset="0.773438" style="stop-color:rgb(93.55011%,29.629517%,15.849304%);stop-opacity:1;"/>
<stop offset="0.777344" style="stop-color:rgb(93.670654%,29.891968%,15.548706%);stop-opacity:1;"/>
<stop offset="0.78125" style="stop-color:rgb(93.792725%,30.154419%,15.249634%);stop-opacity:1;"/>
<stop offset="0.785156" style="stop-color:rgb(93.914795%,30.41687%,14.950562%);stop-opacity:1;"/>
<stop offset="0.789062" style="stop-color:rgb(94.036865%,30.679321%,14.651489%);stop-opacity:1;"/>
<stop offset="0.792969" style="stop-color:rgb(94.158936%,30.941772%,14.350891%);stop-opacity:1;"/>
<stop offset="0.796875" style="stop-color:rgb(94.281006%,31.204224%,14.051819%);stop-opacity:1;"/>
<stop offset="0.800781" style="stop-color:rgb(94.403076%,31.465149%,13.751221%);stop-opacity:1;"/>
<stop offset="0.804688" style="stop-color:rgb(94.525146%,31.7276%,13.452148%);stop-opacity:1;"/>
<stop offset="0.808594" style="stop-color:rgb(94.647217%,31.990051%,13.15155%);stop-opacity:1;"/>
<stop offset="0.8125" style="stop-color:rgb(94.769287%,32.252502%,12.852478%);stop-opacity:1;"/>
<stop offset="0.816406" style="stop-color:rgb(94.891357%,32.514954%,12.55188%);stop-opacity:1;"/>
<stop offset="0.820312" style="stop-color:rgb(95.013428%,32.777405%,12.252808%);stop-opacity:1;"/>
<stop offset="0.824219" style="stop-color:rgb(95.135498%,33.039856%,11.952209%);stop-opacity:1;"/>
<stop offset="0.828125" style="stop-color:rgb(95.257568%,33.302307%,11.653137%);stop-opacity:1;"/>
<stop offset="0.832031" style="stop-color:rgb(95.379639%,33.564758%,11.352539%);stop-opacity:1;"/>
<stop offset="0.835938" style="stop-color:rgb(95.501709%,33.827209%,11.053467%);stop-opacity:1;"/>
<stop offset="0.839844" style="stop-color:rgb(95.622253%,34.088135%,10.752869%);stop-opacity:1;"/>
<stop offset="0.84375" style="stop-color:rgb(95.744324%,34.350586%,10.453796%);stop-opacity:1;"/>
<stop offset="0.847656" style="stop-color:rgb(95.866394%,34.613037%,10.153198%);stop-opacity:1;"/>
<stop offset="0.851562" style="stop-color:rgb(95.988464%,34.875488%,9.854126%);stop-opacity:1;"/>
<stop offset="0.855469" style="stop-color:rgb(96.110535%,35.137939%,9.555054%);stop-opacity:1;"/>
<stop offset="0.859375" style="stop-color:rgb(96.232605%,35.400391%,9.255981%);stop-opacity:1;"/>
<stop offset="0.863281" style="stop-color:rgb(96.354675%,35.662842%,8.955383%);stop-opacity:1;"/>
<stop offset="0.867188" style="stop-color:rgb(96.476746%,35.925293%,8.656311%);stop-opacity:1;"/>
<stop offset="0.871094" style="stop-color:rgb(96.598816%,36.186218%,8.355713%);stop-opacity:1;"/>
<stop offset="0.875" style="stop-color:rgb(96.720886%,36.448669%,8.056641%);stop-opacity:1;"/>
<stop offset="0.878906" style="stop-color:rgb(96.842957%,36.711121%,7.756042%);stop-opacity:1;"/>
<stop offset="0.882812" style="stop-color:rgb(96.965027%,36.973572%,7.45697%);stop-opacity:1;"/>
<stop offset="0.886719" style="stop-color:rgb(97.087097%,37.236023%,7.156372%);stop-opacity:1;"/>
<stop offset="0.890625" style="stop-color:rgb(97.209167%,37.498474%,6.8573%);stop-opacity:1;"/>
<stop offset="0.894531" style="stop-color:rgb(97.329712%,37.760925%,6.556702%);stop-opacity:1;"/>
<stop offset="0.898438" style="stop-color:rgb(97.451782%,38.023376%,6.257629%);stop-opacity:1;"/>
<stop offset="0.902344" style="stop-color:rgb(97.573853%,38.284302%,5.957031%);stop-opacity:1;"/>
<stop offset="0.90625" style="stop-color:rgb(97.695923%,38.546753%,5.657959%);stop-opacity:1;"/>
<stop offset="0.910156" style="stop-color:rgb(97.817993%,38.809204%,5.357361%);stop-opacity:1;"/>
<stop offset="0.914062" style="stop-color:rgb(97.940063%,39.071655%,5.058289%);stop-opacity:1;"/>
<stop offset="0.917969" style="stop-color:rgb(98.062134%,39.334106%,4.759216%);stop-opacity:1;"/>
<stop offset="0.921875" style="stop-color:rgb(98.184204%,39.596558%,4.460144%);stop-opacity:1;"/>
<stop offset="0.925781" style="stop-color:rgb(98.306274%,39.859009%,4.159546%);stop-opacity:1;"/>
<stop offset="0.929688" style="stop-color:rgb(98.428345%,40.12146%,3.860474%);stop-opacity:1;"/>
<stop offset="0.933594" style="stop-color:rgb(98.550415%,40.383911%,3.559875%);stop-opacity:1;"/>
<stop offset="0.9375" style="stop-color:rgb(98.672485%,40.646362%,3.260803%);stop-opacity:1;"/>
<stop offset="0.941406" style="stop-color:rgb(98.794556%,40.907288%,2.960205%);stop-opacity:1;"/>
<stop offset="0.945312" style="stop-color:rgb(98.916626%,41.169739%,2.661133%);stop-opacity:1;"/>
<stop offset="0.949219" style="stop-color:rgb(99.038696%,41.43219%,2.360535%);stop-opacity:1;"/>
<stop offset="0.953125" style="stop-color:rgb(99.160767%,41.694641%,2.061462%);stop-opacity:1;"/>
<stop offset="0.957031" style="stop-color:rgb(99.281311%,41.957092%,1.760864%);stop-opacity:1;"/>
<stop offset="0.960938" style="stop-color:rgb(99.403381%,42.219543%,1.461792%);stop-opacity:1;"/>
<stop offset="0.964844" style="stop-color:rgb(99.525452%,42.481995%,1.161194%);stop-opacity:1;"/>
<stop offset="0.96875" style="stop-color:rgb(99.647522%,42.744446%,0.862122%);stop-opacity:1;"/>
<stop offset="0.972656" style="stop-color:rgb(99.769592%,43.005371%,0.561523%);stop-opacity:1;"/>
<stop offset="0.976562" style="stop-color:rgb(99.891663%,43.267822%,0.262451%);stop-opacity:1;"/>
<stop offset="0.984375" style="stop-color:rgb(99.945068%,43.383789%,0.131226%);stop-opacity:1;"/>
<stop offset="1" style="stop-color:rgb(100%,43.499756%,0%);stop-opacity:1;"/>
</linearGradient>
</defs>
<g id="surface1">
<g clip-path="url(#clip1)" clip-rule="nonzero">
<g clip-path="url(#clip2)" clip-rule="nonzero">
<path style=" stroke:none;fill-rule:nonzero;fill:url(#linear0);" d="M 0.484375 0 L 0.484375 29.03125 L 29.515625 29.03125 L 29.515625 0 Z M 0.484375 0 "/>
</g>
</g>
</g>
</svg>
