<?xml version="1.0" encoding="utf-8"?>
<!-- Generator: Adobe Illustrator 25.3.1, SVG Export Plug-In . SVG Version: 6.00 Build 0)  -->
<svg version="1.1" id="Camada_1" xmlns="http://www.w3.org/2000/svg" xmlns:xlink="http://www.w3.org/1999/xlink" x="0px" y="0px"
	 viewBox="0 0 352.5 352.5" style="enable-background:new 0 0 352.5 352.5;" xml:space="preserve">
<style type="text/css">
	.st0{clip-path:url(#SVGID_2_);}
	.st1{fill:#0D1735;}
</style>
<g id="surface1">
	<g>
		<defs>
			<rect id="SVGID_1_" width="352.5" height="352.5"/>
		</defs>
		<clipPath id="SVGID_2_">
			<use xlink:href="#SVGID_1_"  style="overflow:visible;"/>
		</clipPath>
		<g class="st0">
			<path class="st1" d="M294,0H58.5c-1.9,0-3.8,0.1-5.7,0.3c-1.9,0.2-3.8,0.5-5.7,0.8c-1.9,0.4-3.7,0.8-5.6,1.4
				c-1.8,0.6-3.6,1.2-5.4,1.9c-1.8,0.7-3.5,1.6-5.2,2.5c-1.7,0.9-3.3,1.9-4.9,3c-1.6,1.1-3.1,2.2-4.6,3.4c-1.5,1.2-2.9,2.5-4.3,3.9
				c-1.4,1.4-2.6,2.8-3.9,4.3s-2.4,3-3.4,4.6c-1.1,1.6-2.1,3.2-3,4.9c-0.9,1.7-1.7,3.4-2.5,5.2c-0.7,1.8-1.4,3.6-1.9,5.4
				c-0.6,1.8-1,3.7-1.4,5.6c-0.4,1.9-0.7,3.8-0.8,5.7C0.1,54.7,0,56.6,0,58.5V294c0,1.9,0.1,3.8,0.3,5.7c0.2,1.9,0.5,3.8,0.8,5.7
				c0.4,1.9,0.8,3.7,1.4,5.6c0.6,1.8,1.2,3.6,1.9,5.4c0.7,1.8,1.6,3.5,2.5,5.2c0.9,1.7,1.9,3.3,3,4.9c1.1,1.6,2.2,3.1,3.4,4.6
				s2.5,2.9,3.9,4.2c1.4,1.4,2.8,2.6,4.2,3.9s3,2.4,4.6,3.4c1.6,1.1,3.2,2,4.9,2.9c1.7,0.9,3.4,1.7,5.2,2.5s3.6,1.4,5.4,1.9
				c1.8,0.6,3.7,1,5.6,1.4c1.9,0.4,3.8,0.7,5.7,0.8c1.9,0.2,3.8,0.3,5.7,0.3H294c1.9,0,3.8-0.1,5.7-0.3c1.9-0.2,3.8-0.5,5.7-0.8
				c1.9-0.4,3.7-0.8,5.6-1.4c1.8-0.6,3.6-1.2,5.4-1.9s3.5-1.6,5.2-2.5c1.7-0.9,3.3-1.9,4.9-2.9c1.6-1.1,3.1-2.2,4.6-3.4
				s2.9-2.5,4.2-3.9c1.4-1.4,2.6-2.8,3.9-4.2s2.4-3,3.4-4.6c1.1-1.6,2-3.2,3-4.9c0.9-1.7,1.7-3.4,2.5-5.2c0.7-1.8,1.4-3.6,1.9-5.4
				c0.6-1.8,1-3.7,1.4-5.6c0.4-1.9,0.7-3.8,0.8-5.7c0.2-1.9,0.3-3.8,0.3-5.7V58.5c0-1.9-0.1-3.8-0.3-5.7c-0.2-1.9-0.5-3.8-0.8-5.7
				c-0.4-1.9-0.8-3.7-1.4-5.6c-0.6-1.8-1.2-3.6-1.9-5.4c-0.7-1.8-1.6-3.5-2.5-5.2c-0.9-1.7-1.9-3.3-3-4.9c-1.1-1.6-2.2-3.1-3.4-4.6
				s-2.5-2.9-3.9-4.3c-1.4-1.4-2.8-2.6-4.3-3.9s-3-2.4-4.6-3.4c-1.6-1.1-3.2-2.1-4.9-3c-1.7-0.9-3.4-1.7-5.2-2.5
				c-1.8-0.7-3.6-1.4-5.4-1.9c-1.8-0.6-3.7-1-5.6-1.4c-1.9-0.4-3.8-0.7-5.7-0.8C297.8,0.1,295.9,0,294,0z M219.3,309
				c-1.2,0.3-2.4,0.5-3.6,0.6c-1.2,0.1-2.4,0-3.6-0.2c-1.2-0.2-2.4-0.6-3.5-1c-1.1-0.5-2.2-1.1-3.1-1.8c-0.8-0.7-1.5-1.4-2.1-2.2
				s-1.1-1.7-1.5-2.6c-0.4-0.9-0.7-1.9-0.9-2.9c-0.2-1-0.3-2-0.3-3v-7.2c0-6.6,0.1-16.7,0.1-28.2c0.2-1.7,0.2-3.3,0-5
				c-0.2-1.7-0.5-3.3-1.1-4.8s-1.2-3.1-2.1-4.5c-0.9-1.4-1.8-2.8-3-4c-0.5-0.5-1-1-1.4-1.6c-0.4-0.6-0.7-1.3-0.9-2
				c-0.2-0.7-0.3-1.4-0.3-2.1c0-0.7,0.1-1.4,0.3-2.1s0.5-1.3,0.9-1.9c0.4-0.6,0.9-1.1,1.4-1.6c0.6-0.5,1.2-0.8,1.8-1.1
				s1.4-0.5,2.1-0.5c27.1-3.1,52.1-11.9,52.1-56.4c0.1-2.7-0.2-5.4-0.6-8.1s-1.2-5.3-2.1-7.8s-2.2-5-3.6-7.3
				c-1.4-2.3-3.1-4.5-4.9-6.5c-0.5-0.5-0.9-1.1-1.2-1.7c-0.3-0.6-0.5-1.3-0.7-2c-0.1-0.7-0.2-1.4-0.1-2.1c0.1-0.7,0.2-1.4,0.5-2
				c1.4-3.9,2.1-7.9,2.1-12s-0.6-8.2-1.8-12.1c-4.7,1.1-9.2,2.6-13.6,4.7c-4.4,2-8.4,4.5-12.3,7.4c-0.9,0.6-1.9,1-3,1.2
				s-2.1,0.1-3.2-0.2c-9.9-2.7-20-4.1-30.3-4.1c-10.2,0-20.3,1.4-30.1,4.1c-1,0.3-2.1,0.4-3.2,0.2c-1.1-0.2-2.1-0.6-3-1.2
				c-3.8-2.9-7.9-5.4-12.3-7.4s-8.9-3.6-13.6-4.6c-1.3,3.9-1.9,7.9-1.8,12.1c0.1,4.1,0.8,8.1,2.1,12c0.3,0.6,0.4,1.3,0.5,2
				c0.1,0.7,0,1.4-0.1,2.1s-0.3,1.3-0.7,2c-0.3,0.6-0.7,1.2-1.2,1.7c-1.8,2-3.5,4.2-4.9,6.5c-1.4,2.3-2.6,4.7-3.6,7.3
				c-1,2.5-1.7,5.1-2.1,7.8c-0.5,2.7-0.7,5.4-0.6,8.1c0,44.4,26.3,53.5,52,56.5c0.5,0.1,1,0.2,1.4,0.3s0.9,0.3,1.3,0.6
				c0.4,0.2,0.8,0.5,1.2,0.8c0.4,0.3,0.7,0.7,1,1s0.6,0.8,0.8,1.2c0.2,0.4,0.4,0.9,0.5,1.4c0.1,0.5,0.2,0.9,0.3,1.4c0,0.5,0,1,0,1.5
				c-0.1,0.5-0.2,0.9-0.3,1.4c-0.2,0.5-0.4,0.9-0.6,1.3s-0.5,0.8-0.8,1.2c-0.3,0.4-0.7,0.7-1,1s-0.8,0.6-1.2,0.8
				c-0.4,0.2-0.9,0.4-1.3,0.5c-0.5,0.1-0.9,0.2-1.4,0.3s-1,0.1-1.4,0c-28-3.2-65.1-14.1-65.1-71.2c0-3.3,0.2-6.5,0.7-9.7
				c0.5-3.2,1.3-6.4,2.3-9.5c1-3.1,2.3-6.1,3.9-8.9s3.3-5.6,5.3-8.2c-0.7-2.9-1.2-5.9-1.5-8.9c-0.3-3-0.3-6,0-9
				c0.2-3,0.7-5.9,1.4-8.9c0.7-2.9,1.6-5.8,2.8-8.5c0.4-1,1-1.9,1.8-2.7s1.7-1.3,2.8-1.7c2.3-0.8,14.6-3.5,39,12.3
				c10.1-2.5,20.4-3.8,30.9-3.8c10.4,0,20.7,1.3,30.9,3.8c24.3-15.7,36.7-13,38.9-12.3c1.1,0.3,2,0.9,2.8,1.7
				c0.8,0.8,1.4,1.6,1.8,2.7c1.2,2.8,2.1,5.6,2.8,8.5c0.7,2.9,1.2,5.9,1.4,8.9s0.2,6,0,9c-0.3,3-0.7,5.9-1.5,8.9
				c2,2.6,3.8,5.3,5.3,8.2s2.8,5.9,3.9,8.9s1.8,6.2,2.3,9.5c0.5,3.2,0.8,6.5,0.7,9.7c0,49.4-27.8,64.2-53.4,69.3
				c2.4,5.9,3.5,12,3.4,18.4c0,11.6-0.1,21.6-0.1,28.3v5.8c2.2-0.8,4.4-1.6,6.6-2.5c2.2-0.9,4.3-1.9,6.5-2.9c2.1-1,4.2-2.1,6.3-3.3
				c2.1-1.2,4.1-2.4,6.1-3.6c2-1.3,3.9-2.6,5.9-4s3.8-2.8,5.6-4.3s3.6-3,5.4-4.6s3.4-3.3,5.1-5c1.6-1.7,3.2-3.4,4.8-5.2
				s3-3.6,4.5-5.5c1.4-1.9,2.8-3.8,4.1-5.8c1.3-2,2.6-4,3.8-6c1.2-2,2.3-4.1,3.4-6.2c1.1-2.1,2.1-4.2,3.1-6.4c1-2.2,1.8-4.4,2.7-6.6
				c0.8-2.2,1.6-4.4,2.3-6.7c0.7-2.3,1.3-4.5,1.9-6.8c0.6-2.3,1.1-4.6,1.5-6.9c0.4-2.3,0.8-4.7,1.1-7c0.3-2.3,0.5-4.7,0.7-7.1
				c0.2-2.4,0.2-4.7,0.2-7.1s0-4.7-0.2-7.1c-0.1-2.4-0.3-4.7-0.6-7.1c-0.3-2.3-0.6-4.7-1-7c-0.4-2.3-0.9-4.6-1.4-6.9
				c-0.5-2.3-1.1-4.6-1.8-6.9c-0.7-2.3-1.4-4.5-2.2-6.7c-0.8-2.2-1.7-4.4-2.6-6.6s-1.9-4.3-3-6.4s-2.2-4.2-3.4-6.2
				c-1.2-2.1-2.4-4.1-3.7-6s-2.7-3.9-4.1-5.8c-1.4-1.9-2.9-3.8-4.4-5.6c-1.5-1.8-3.1-3.6-4.7-5.3c-1.6-1.7-3.3-3.4-5-5
				s-3.5-3.2-5.3-4.7c-1.8-1.5-3.7-3-5.6-4.4c-1.9-1.4-3.8-2.8-5.8-4.1c-2-1.3-4-2.5-6-3.7s-4.1-2.3-6.2-3.3s-4.3-2-6.4-3
				c-2.2-0.9-4.4-1.8-6.6-2.6c-2.2-0.8-4.5-1.5-6.7-2.2c-2.3-0.7-4.6-1.3-6.9-1.8c-2.3-0.5-4.6-1-6.9-1.4c-2.3-0.4-4.7-0.7-7-1
				c-2.3-0.3-4.7-0.4-7.1-0.6c-2.4-0.1-4.7-0.2-7.1-0.2c-2.4,0-4.7,0.1-7.1,0.3s-4.7,0.4-7.1,0.7c-2.3,0.3-4.7,0.7-7,1.1
				c-2.3,0.4-4.6,0.9-6.9,1.5c-2.3,0.6-4.6,1.2-6.8,1.9c-2.3,0.7-4.5,1.5-6.7,2.3c-2.2,0.8-4.4,1.7-6.6,2.7c-2.2,1-4.3,2-6.4,3.1
				c-2.1,1.1-4.2,2.2-6.2,3.4c-2,1.2-4,2.5-6,3.8c-2,1.3-3.9,2.7-5.8,4.1c-1.9,1.4-3.7,2.9-5.5,4.5c-1.8,1.5-3.5,3.1-5.2,4.8
				s-3.3,3.3-4.9,5.1c-1.6,1.7-3.1,3.5-4.6,5.4s-2.9,3.7-4.3,5.6s-2.7,3.9-4,5.9c-1.3,2-2.5,4-3.6,6.1c-1.2,2.1-2.2,4.2-3.3,6.3
				s-2,4.3-2.9,6.5c-0.9,2.2-1.7,4.4-2.5,6.6c-0.8,2.2-1.5,4.5-2.1,6.8c-0.6,2.3-1.2,4.6-1.7,6.9s-0.9,4.6-1.3,7s-0.7,4.7-0.9,7
				s-0.4,4.7-0.5,7.1c-0.1,2.4-0.1,4.7-0.1,7.1s0.2,4.7,0.3,7.1s0.4,4.7,0.8,7c0.3,2.3,0.7,4.7,1.2,7s1,4.6,1.6,6.9s1.3,4.6,2,6.8
				c0.7,2.2,1.5,4.5,2.4,6.7s1.8,4.4,2.8,6.5c1,2.1,2,4.3,3.1,6.4c1.1,2.1,2.3,4.1,3.5,6.2c1.2,2,2.5,4,3.9,5.9
				c1.3,1.9,2.7,3.8,4.2,5.7c1.5,1.9,3,3.7,4.5,5.4s3.2,3.5,4.8,5.2c1.7,1.7,3.4,3.3,5.1,4.9c1.8,1.6,3.6,3.1,5.4,4.6
				c1.9,1.5,3.7,2.9,5.7,4.2s3.9,2.7,5.9,3.9c2,1.2,4.1,2.4,6.1,3.6c2.1,1.1,4.2,2.2,6.3,3.2c2.1,1,4.3,1.9,6.5,2.8
				c2.2,0.9,4.4,1.7,6.7,2.4c-1-9.1-1.4-18.3-1.1-27.4c-1.9,0.2-3.7,0.3-5.4,0.3c-2,0.1-4,0.1-6,0s-4-0.5-5.9-1
				c-1.9-0.5-3.8-1.1-5.7-1.9c-1.8-0.8-3.6-1.7-5.3-2.8s-3.3-2.3-4.8-3.6c-1.5-1.3-2.9-2.8-4.1-4.3s-2.4-3.2-3.4-4.9
				c-1-1.7-1.8-3.5-2.5-5.4c-0.2-0.5-0.3-0.9-0.3-1.4c-0.1-0.5-0.1-1,0-1.5s0.1-1,0.3-1.4c0.1-0.5,0.3-0.9,0.6-1.4
				c0.2-0.4,0.5-0.8,0.8-1.2c0.3-0.4,0.7-0.7,1-1c0.4-0.3,0.8-0.6,1.2-0.8c0.4-0.2,0.9-0.4,1.4-0.6s1-0.2,1.4-0.3c0.5,0,1,0,1.5,0
				c0.5,0.1,1,0.2,1.4,0.3c0.5,0.1,0.9,0.3,1.4,0.6c0.4,0.2,0.8,0.5,1.2,0.8c0.4,0.3,0.7,0.7,1,1.1c0.3,0.4,0.6,0.8,0.8,1.2
				c0.2,0.4,0.4,0.9,0.5,1.4c0.6,1.8,6.9,18.2,34.7,12.3c0.5-0.1,1-0.2,1.4-0.2c0.5,0,1,0,1.4,0.1s0.9,0.2,1.4,0.4
				c0.5,0.2,0.9,0.4,1.3,0.7c0.4,0.3,0.8,0.6,1.1,0.9c0.3,0.3,0.7,0.7,0.9,1.1c0.3,0.4,0.5,0.8,0.7,1.3c0.2,0.4,0.3,0.9,0.4,1.4
				c0.2,1.2,0.2,2.4-0.2,3.5c0.2,0.5,0.3,1.1,0.4,1.6c0.1,10.8,0.2,30.1,0.2,33.2c0,1-0.1,2-0.3,3c-0.2,1-0.5,2-0.9,2.9
				c-0.4,0.9-0.9,1.8-1.5,2.6c-0.6,0.8-1.3,1.6-2.1,2.2c-1.3,1.1-2.7,1.9-4.3,2.4s-3.2,0.8-4.9,0.8c-1.2,0-2.3-0.1-3.5-0.3
				c-2.5-0.8-5-1.7-7.5-2.7s-4.9-2-7.4-3.1c-2.4-1.1-4.8-2.3-7.2-3.6c-2.3-1.3-4.7-2.6-6.9-4c-2.3-1.4-4.5-2.9-6.7-4.4
				c-2.2-1.5-4.3-3.1-6.4-4.8c-2.1-1.6-4.1-3.4-6.1-5.1c-2-1.8-3.9-3.6-5.8-5.5c-1.9-1.9-3.7-3.8-5.5-5.8c-1.8-2-3.5-4-5.1-6.1
				c-1.6-2.1-3.2-4.2-4.8-6.4c-1.5-2.2-3-4.4-4.4-6.7s-2.7-4.6-4-6.9c-1.3-2.4-2.4-4.7-3.6-7.2c-1.1-2.4-2.2-4.9-3.1-7.4
				s-1.9-5-2.7-7.5c-0.8-2.5-1.6-5.1-2.2-7.7s-1.3-5.2-1.8-7.8c-0.5-2.6-1-5.2-1.3-7.9c-0.4-2.6-0.7-5.3-0.9-7.9s-0.3-5.3-0.4-8
				s0-5.3,0.1-8c0.1-2.7,0.3-5.3,0.5-8c0.3-2.7,0.6-5.3,1-7.9c0.4-2.6,0.9-5.2,1.5-7.9s1.2-5.2,1.9-7.8c0.7-2.6,1.5-5.1,2.4-7.6
				c0.9-2.5,1.8-5,2.8-7.5c1-2.5,2.1-4.9,3.3-7.3c1.2-2.4,2.4-4.8,3.7-7.1c1.3-2.3,2.7-4.6,4.1-6.9c1.4-2.2,2.9-4.5,4.5-6.6
				s3.2-4.3,4.9-6.3c1.7-2.1,3.4-4.1,5.2-6s3.7-3.9,5.6-5.7c1.9-1.9,3.9-3.6,5.9-5.4c2-1.7,4.1-3.4,6.2-5s4.3-3.2,6.5-4.7
				c2.2-1.5,4.5-2.9,6.8-4.3c2.3-1.4,4.6-2.6,7-3.9c2.4-1.2,4.8-2.4,7.2-3.4c2.4-1.1,4.9-2.1,7.4-3s5-1.8,7.6-2.6s5.1-1.5,7.7-2.1
				c2.6-0.6,5.2-1.2,7.8-1.7c2.6-0.5,5.3-0.9,7.9-1.2c2.6-0.3,5.3-0.6,8-0.7c2.7-0.2,5.3-0.2,8-0.3c2.7,0,5.3,0.1,8,0.2
				c2.7,0.1,5.3,0.4,8,0.7s5.3,0.7,7.9,1.1c2.6,0.5,5.2,1,7.8,1.6s5.2,1.3,7.7,2.1c2.6,0.8,5.1,1.6,7.6,2.5c2.5,0.9,5,1.9,7.4,3
				c2.4,1.1,4.9,2.2,7.2,3.4c2.4,1.2,4.7,2.5,7,3.8c2.3,1.3,4.6,2.7,6.8,4.2c2.2,1.5,4.4,3,6.5,4.6c2.1,1.6,4.2,3.3,6.2,5
				s4,3.5,5.9,5.3c1.9,1.8,3.8,3.7,5.6,5.7c1.8,1.9,3.6,4,5.3,6c1.7,2.1,3.3,4.2,4.9,6.3c1.6,2.1,3.1,4.3,4.5,6.6
				c1.4,2.2,2.8,4.5,4.1,6.8c1.3,2.3,2.6,4.7,3.7,7.1s2.3,4.8,3.3,7.3c1,2.5,2,4.9,2.9,7.5c0.9,2.5,1.7,5.1,2.4,7.6
				c0.7,2.6,1.4,5.1,2,7.7c0.6,2.6,1.1,5.2,1.5,7.8c0.4,2.6,0.8,5.3,1.1,7.9c0.3,2.6,0.5,5.3,0.6,8c0.1,2.7,0.2,5.3,0.1,8
				c0,2.7-0.2,5.3-0.3,8c-0.2,2.7-0.5,5.3-0.8,8c-0.4,2.6-0.8,5.3-1.3,7.9c-0.5,2.6-1.1,5.2-1.7,7.8c-0.7,2.6-1.4,5.1-2.2,7.7
				c-0.8,2.5-1.7,5.1-2.6,7.5s-2,4.9-3.1,7.4c-1.1,2.4-2.3,4.8-3.5,7.2s-2.6,4.7-3.9,7s-2.8,4.5-4.3,6.7c-1.5,2.2-3.1,4.3-4.7,6.5
				c-1.6,2.1-3.3,4.2-5.1,6.2s-3.6,4-5.4,5.9c-1.9,1.9-3.8,3.7-5.8,5.5c-2,1.8-4,3.5-6.1,5.2s-4.2,3.3-6.4,4.8
				c-2.2,1.5-4.4,3-6.7,4.4c-2.3,1.4-4.6,2.8-6.9,4c-2.3,1.3-4.7,2.5-7.1,3.6c-2.4,1.1-4.9,2.2-7.3,3.2c-2.5,1-5,1.9-7.5,2.8
				L219.3,309z"/>
		</g>
	</g>
</g>
</svg>
