<?xml version="1.0" encoding="utf-8"?>
<!-- Generator: Adobe Illustrator 25.3.1, SVG Export Plug-In . SVG Version: 6.00 Build 0)  -->
<svg version="1.1" id="Camada_1" xmlns="http://www.w3.org/2000/svg" xmlns:xlink="http://www.w3.org/1999/xlink" x="0px" y="0px"
	 viewBox="0 0 348 348" style="enable-background:new 0 0 348 348;" xml:space="preserve">
<style type="text/css">
	.st0{clip-path:url(#SVGID_2_);}
	.st1{fill:#0D1735;}
	.st2{fill:#FFFFFF;}
</style>
<g id="surface1">
	<g>
		<defs>
			<rect id="SVGID_1_" width="348" height="348"/>
		</defs>
		<clipPath id="SVGID_2_">
			<use xlink:href="#SVGID_1_"  style="overflow:visible;"/>
		</clipPath>
		<g class="st0">
			<path class="st1" d="M348,295.1c0,29.2-23.7,52.9-52.9,52.9H52.9C23.7,348,0,324.3,0,295.1V52.9C0,23.7,23.7,0,52.9,0h242.2
				C324.3,0,348,23.7,348,52.9L348,295.1L348,295.1z"/>
		</g>
	</g>
	<path class="st2" d="M137.6,124.1c0,0.9,0,1.7-0.1,2.5c-0.1,0.8-0.2,1.7-0.4,2.5c-0.2,0.8-0.4,1.7-0.6,2.5
		c-0.2,0.8-0.5,1.6-0.9,2.4c-0.3,0.8-0.7,1.6-1.1,2.3s-0.8,1.5-1.3,2.2s-1,1.4-1.5,2.1c-0.5,0.7-1.1,1.3-1.7,1.9
		c-0.6,0.6-1.2,1.2-1.9,1.7c-0.7,0.5-1.3,1-2.1,1.5s-1.4,0.9-2.2,1.3s-1.5,0.8-2.3,1.1c-0.8,0.3-1.6,0.6-2.4,0.9
		c-0.8,0.2-1.6,0.5-2.5,0.6c-0.8,0.2-1.7,0.3-2.5,0.4c-0.8,0.1-1.7,0.1-2.5,0.1s-1.7,0-2.6-0.1c-0.8-0.1-1.7-0.2-2.5-0.4
		c-0.8-0.2-1.7-0.4-2.5-0.6c-0.8-0.2-1.6-0.5-2.4-0.9c-0.8-0.3-1.6-0.7-2.3-1.1c-0.8-0.4-1.5-0.8-2.2-1.3c-0.7-0.5-1.4-1-2-1.5
		c-0.7-0.5-1.3-1.1-1.9-1.7c-0.6-0.6-1.2-1.2-1.7-1.9c-0.5-0.7-1-1.3-1.5-2.1s-0.9-1.4-1.3-2.2c-0.4-0.8-0.8-1.5-1.1-2.3
		c-0.3-0.8-0.6-1.6-0.9-2.4c-0.2-0.8-0.5-1.6-0.6-2.5c-0.2-0.8-0.3-1.7-0.4-2.5c-0.1-0.8-0.1-1.7-0.1-2.5s0-1.7,0.1-2.5
		c0.1-0.8,0.2-1.7,0.4-2.5c0.2-0.8,0.4-1.7,0.6-2.5c0.2-0.8,0.5-1.6,0.9-2.4c0.3-0.8,0.7-1.6,1.1-2.3c0.4-0.8,0.8-1.5,1.3-2.2
		c0.5-0.7,1-1.4,1.5-2.1c0.5-0.7,1.1-1.3,1.7-1.9s1.2-1.2,1.9-1.7c0.7-0.5,1.3-1,2-1.5c0.7-0.5,1.4-0.9,2.2-1.3
		c0.8-0.4,1.5-0.8,2.3-1.1c0.8-0.3,1.6-0.6,2.4-0.9c0.8-0.2,1.6-0.5,2.5-0.6c0.8-0.2,1.7-0.3,2.5-0.4s1.7-0.1,2.6-0.1s1.7,0,2.5,0.1
		s1.7,0.2,2.5,0.4c0.8,0.2,1.7,0.4,2.5,0.6c0.8,0.2,1.6,0.5,2.4,0.9c0.8,0.3,1.6,0.7,2.3,1.1c0.8,0.4,1.5,0.8,2.2,1.3
		c0.7,0.5,1.4,1,2.1,1.5c0.7,0.5,1.3,1.1,1.9,1.7c0.6,0.6,1.2,1.2,1.7,1.9c0.5,0.7,1,1.3,1.5,2.1c0.5,0.7,0.9,1.4,1.3,2.2
		c0.4,0.8,0.8,1.5,1.1,2.3s0.6,1.6,0.9,2.4s0.5,1.6,0.6,2.5c0.2,0.8,0.3,1.7,0.4,2.5C137.6,122.4,137.6,123.3,137.6,124.1z"/>
	<path class="st2" d="M89.2,169.3h44.7V313H89.2V169.3z"/>
	<path class="st2" d="M162,169.3h42.5V313H162V169.3z"/>
	<path class="st2" d="M163.8,245.8h42.5V313h-42.5V245.8z"/>
	<path class="st2" d="M206.3,245.8c0,0-0.7-18.6,4.2-28.3c0,0,4.9-11.9,20.4-12c0,0,18.1-3.2,23.3,14.8c0,0,2,10,2,14.2
		s0.1,78.5,0.1,78.5h44.5v-82.3c0,0,3.2-46.5-24.7-59.2c0,0-45.9-20.6-70.8,17.2c0,0-5.4,3.7-6.2-6.7c-0.8-10.5-7.1,16.1-7.3,16.7
		s7.3,53,7.3,53L206.3,245.8z"/>
</g>
</svg>
